<svg version="1.0" xmlns="http://www.w3.org/2000/svg" xmlns:xlink="http://www.w3.org/1999/xlink" x="0px" y="0px" viewBox="0 0 150 28.5" enable-background="new 0 0 150 28.5" xml:space="preserve">
							<path fill-rule="evenodd" clip-rule="evenodd" fill="#00405A" d="M106.9,19.2L106.9,19.2l-3.1,0l4.2-8.3c0.2-0.4,0.4-0.8,0.6-1.1
									c0.2-0.3,0.4-0.6,0.6-0.9c0.2-0.2,0.5-0.4,0.8-0.5c0.3-0.1,0.6-0.2,1-0.2c0.4,0,0.7,0.1,1,0.2c0.3,0.1,0.5,0.3,0.7,0.6
									c0.2,0.2,0.4,0.5,0.6,0.9c0.2,0.3,0.4,0.7,0.6,1.2l4.1,8.2h-3l-1.6-2.9l-5.3,0L106.9,19.2L106.9,19.2z M109.8,13.5l2.5,0l-1.3-2.3
									L109.8,13.5z"></path>
							<path fill-rule="evenodd" clip-rule="evenodd" fill="#00405A" d="M144.8,8.3l5.2,0l-8.6,5.5l8.7,5.5l-5.3,0l-4.5-2.8
									c-0.2-0.1-0.4-0.3-0.6-0.4c-0.2-0.1-0.3-0.3-0.5-0.4c-0.1-0.1-0.3-0.3-0.4-0.5c-0.1-0.2-0.2-0.4-0.3-0.6l0,4.6l-2.8,0l0-10.9l2.8,0
									l0,4.7c0.1-0.2,0.2-0.4,0.3-0.6c0.1-0.2,0.2-0.3,0.4-0.5c0.1-0.1,0.3-0.3,0.5-0.4c0.2-0.1,0.4-0.3,0.6-0.4L144.8,8.3z"></path>
							<path fill-rule="evenodd" clip-rule="evenodd" fill="#00405A" d="M119.2,8.2L119.2,8.2l11.5,0c0.4,0,0.8,0.1,1.2,0.3
									c0.4,0.2,0.7,0.4,1,0.8c0.3,0.3,0.5,0.7,0.7,1.1c0.2,0.4,0.3,0.8,0.3,1.3c0,0.3-0.1,0.7-0.2,1c-0.1,0.3-0.3,0.6-0.4,0.9
									c0.2,0.3,0.4,0.6,0.5,0.9c0.1,0.3,0.2,0.6,0.2,1l0,3.7l-2.7,0l0-4.1l-9.3,0l0,4.1l-2.8,0L119.2,8.2L119.2,8.2z M122,12.3l9.3,0V11
									l-9.3,0L122,12.3z"></path>
							<path fill-rule="evenodd" clip-rule="evenodd" fill="#00405A" d="M89.4,19.2l-2.6,0l0-8.3c0-0.4,0.1-0.7,0.2-1
									c0.1-0.3,0.3-0.6,0.6-0.8c0.2-0.2,0.5-0.4,0.8-0.6c0.3-0.1,0.7-0.2,1-0.2c0.3,0,0.7,0.1,1,0.2c0.3,0.1,0.6,0.3,0.8,0.5
									c0.2,0.2,0.5,0.5,0.6,0.7c0.2,0.3,0.3,0.6,0.5,0.9l2.4,6l2.7-6.3c0.2-0.6,0.6-1.1,1-1.5c0.4-0.3,1-0.5,1.6-0.5
									c0.4,0,0.8,0.1,1.1,0.2c0.3,0.2,0.6,0.4,0.8,0.7c0.2,0.3,0.4,0.6,0.5,1c0.1,0.4,0.2,0.7,0.2,1.1l0,7.9l-2.6,0l0-8.1l-2.6,5.6
									c-0.2,0.4-0.3,0.7-0.5,1c-0.2,0.3-0.4,0.6-0.6,0.8c-0.2,0.2-0.4,0.4-0.7,0.5c-0.3,0.1-0.6,0.2-1,0.2c-0.3,0-0.7-0.1-1-0.2
									c-0.3-0.1-0.5-0.3-0.8-0.6c-0.2-0.2-0.4-0.5-0.6-0.8c-0.2-0.3-0.3-0.6-0.5-0.9l-2.5-5.5L89.4,19.2z"></path>
							<path fill-rule="evenodd" clip-rule="evenodd" fill="#00405A" d="M19.9,22.6c-1.8,1.2-3.9,1.9-6.2,1.9c-2.3,0-4.5-0.7-6.2-1.9l-2,2
									c2.3,1.7,5.1,2.7,8.2,2.7c3.1,0,5.9-1,8.2-2.7L19.9,22.6z"></path>
							<path fill-rule="evenodd" clip-rule="evenodd" fill="#00405A" d="M4.7,19.8c-1.2-1.8-1.9-3.9-1.9-6.2c0-2.3,0.7-4.4,1.9-6.2l-2-2
									C1,7.7,0,10.6,0,13.6c0,3.1,1,5.9,2.7,8.2L4.7,19.8z"></path>
							<path fill-rule="evenodd" clip-rule="evenodd" fill="#00405A" d="M19.3,1.2C17.6,0.4,15.6,0,13.7,0c-3.1,0-5.9,1-8.2,2.7l2,2
									c1.8-1.2,3.9-2,6.3-2c0.9,0,1.8,0.2,2.7,0.4L19.3,1.2z"></path>
							<path fill-rule="evenodd" clip-rule="evenodd" fill="#00405A" d="M26.2,8l-2,2.8c0.3,0.9,0.4,1.9,0.4,2.8c0,2.3-0.7,4.5-2,6.3l2,2
									c1.7-2.3,2.8-5.1,2.8-8.2C27.4,11.7,27,9.8,26.2,8z"></path>
							<path fill-rule="evenodd" clip-rule="evenodd" fill="#008ED3" d="M34.7,10.6c0-0.4,0.1-0.7,0.2-1c0.2-0.3,0.4-0.6,0.6-0.8
									c0.3-0.2,0.5-0.4,0.9-0.6C36.7,8.1,37,8,37.4,8c0.8,0,1.5,0.4,2.2,1.1l7.3,7.3l0-8.1l2.7,0l0,8c0,0.4-0.1,0.8-0.2,1.2
									c-0.1,0.4-0.3,0.7-0.5,1c-0.2,0.3-0.5,0.5-0.8,0.7c-0.3,0.2-0.7,0.2-1.1,0.2c-0.2,0-0.4,0-0.6-0.1c-0.2,0-0.3-0.1-0.5-0.2
									c-0.2-0.1-0.4-0.2-0.5-0.3c-0.2-0.1-0.4-0.3-0.6-0.5l-7.3-7.3l0,8.2l-2.7,0L34.7,10.6z"></path>
							<path fill-rule="evenodd" clip-rule="evenodd" fill="#008ED3" d="M55.8,8.2l11.2,0l0,2.8l-12.3,0l0,1.3l12.3,0l0,2.8l-12.3,0v1.2
									l12.3,0l0,2.9l-11.2,0c-0.5,0-1-0.1-1.4-0.3c-0.5-0.2-0.9-0.4-1.2-0.7c-0.3-0.3-0.6-0.7-0.8-1.1c-0.2-0.4-0.3-0.9-0.3-1.4l0-3.9
									c0-0.5,0.1-1,0.3-1.5c0.2-0.4,0.5-0.8,0.8-1.1c0.3-0.3,0.7-0.5,1.2-0.7C54.7,8.3,55.2,8.2,55.8,8.2z"></path>
							<path fill-rule="evenodd" clip-rule="evenodd" fill="#008ED3" d="M71.5,8.3l1.4,8.1l1.8-6.2c0.1-0.3,0.2-0.6,0.4-0.9
									c0.2-0.3,0.4-0.5,0.6-0.7c0.2-0.2,0.5-0.3,0.8-0.4c0.3-0.1,0.6-0.1,1-0.1c0.3,0,0.6,0,0.8,0.1c0.3,0.1,0.5,0.2,0.7,0.4
									c0.2,0.2,0.4,0.4,0.5,0.6c0.2,0.3,0.3,0.5,0.4,0.8l1.8,6.1l1.5-7.9l2.7,0l-1.6,8.7c-0.1,0.3-0.2,0.7-0.4,0.9
									c-0.2,0.3-0.4,0.5-0.6,0.8c-0.2,0.2-0.5,0.4-0.8,0.5c-0.3,0.1-0.6,0.2-0.9,0.2c-0.7,0-1.2-0.2-1.7-0.6c-0.4-0.4-0.8-0.9-1-1.7
									l-1.6-6L75.6,17c-0.1,0.3-0.2,0.7-0.4,0.9c-0.2,0.3-0.4,0.5-0.6,0.7c-0.2,0.2-0.5,0.3-0.8,0.5c-0.3,0.1-0.6,0.2-1,0.2
									c-0.3,0-0.6-0.1-0.9-0.2c-0.3-0.1-0.5-0.3-0.8-0.5c-0.2-0.2-0.4-0.5-0.6-0.8c-0.1-0.3-0.2-0.6-0.3-0.9l-1.6-8.6L71.5,8.3z"></path>
							<polygon fill-rule="evenodd" clip-rule="evenodd" fill="#008ED3" points="4.1,16.4 26,1.4 11,23.2 11.7,15.6 "></polygon>

						</svg>
